<?xml version="1.0" encoding="UTF-8"?>
<svg id="Layer_1" xmlns="http://www.w3.org/2000/svg" version="1.1" viewBox="0 0 206.94 258.8">
  <!-- Generator: Adobe Illustrator 30.4.0, SVG Export Plug-In . SVG Version: 2.1.4 Build 226)  -->
  <path fill="#0EA5E9" d="M206.94,127.28V28.88s-23.45-15.81-23.45-15.81l-44.16-.03-.11-7.42c-.03-2.3-7-3.93-11.33-4.38-16.2-1.67-32.22-1.65-48.41-.06-4.69.46-11.84,1.89-11.84,4.79v7.07s-44.21.02-44.21.02L0,28.93v98.38s23.51,15.91,23.51,15.91h61.14s0,108.91,0,108.91c.92,2.18,2.67,3.56,4.95,4.35,8.76,3.04,18.54,3.12,27.56.07,2.48-.84,4.22-2.25,5.13-4.42v-108.92s61.23,0,61.23,0l23.42-15.92Z"/>
</svg>